<svg width="337" height="196" viewBox="0 0 337 196" fill="none" xmlns="http://www.w3.org/2000/svg">
<path d="M0 95.04V93.6L2.88 92.592C4.8 92.016 6.048 91.152 6.624 90C7.296 88.848 7.632 87.312 7.632 85.392V9.936C7.632 8.016 7.296 6.48 6.624 5.328C5.952 4.176 4.656 3.264 2.736 2.592L0 1.44V0H34.992C49.296 0 59.616 2.64 65.952 7.92C72.384 13.104 75.6 19.968 75.6 28.512C75.6 33.984 74.256 39.024 71.568 43.632C68.976 48.144 64.656 51.744 58.608 54.432C52.56 57.12 44.4 58.464 34.128 58.464H29.232V84.96C29.232 88.704 31.104 91.152 34.848 92.304L39.168 93.6V95.04H0ZM29.232 55.584H34.704C39.408 55.584 43.248 54.816 46.224 53.28C49.2 51.744 51.408 49.056 52.848 45.216C54.288 41.376 55.008 36.048 55.008 29.232C55.008 22.32 54.192 16.944 52.56 13.104C51.024 9.264 48.72 6.624 45.648 5.184C42.576 3.648 38.736 2.88 34.128 2.88H29.232V55.584Z" fill="#BB4430"/>
<path d="M115.218 95.472L89.73 34.272C88.386 31.008 86.082 28.848 82.818 27.792L80.802 27.216V25.776H118.098V27.216L115.506 27.792C111.762 28.752 110.61 31.248 112.05 35.28L127.17 75.456L141.282 35.568C142.05 33.648 142.242 32.064 141.858 30.816C141.474 29.568 140.322 28.656 138.402 28.08L134.802 27.216V25.776H155.682V27.216L151.506 28.224C149.682 28.704 148.242 29.424 147.186 30.384C146.226 31.344 145.41 32.784 144.738 34.704L123.57 95.472H115.218Z" fill="#BB4430"/>
<path d="M187.244 97.2C181.1 97.2 176.3 95.664 172.844 92.592C169.484 89.52 167.804 84.624 167.804 77.904V28.656H157.868V27.216L161.324 26.64C164.3 25.968 166.844 25.008 168.956 23.76C171.164 22.512 173.324 20.832 175.436 18.72L187.244 5.616H188.684L188.252 25.776H204.38V28.656H188.108V80.496C188.108 83.856 188.828 86.4 190.268 88.128C191.804 89.856 193.724 90.72 196.028 90.72C198.044 90.72 199.82 90.24 201.356 89.28C202.892 88.224 204.428 86.832 205.964 85.104L207.404 86.544C205.484 89.808 202.844 92.4 199.484 94.32C196.124 96.24 192.044 97.2 187.244 97.2Z" fill="#BB4430"/>
<path d="M230.635 97.2C227.179 97.2 224.251 96 221.851 93.6C219.451 91.2 218.251 88.32 218.251 84.96C218.251 81.6 219.451 78.672 221.851 76.176C224.251 73.68 227.179 72.432 230.635 72.432C234.091 72.432 237.019 73.68 239.419 76.176C241.819 78.672 243.019 81.6 243.019 84.96C243.019 88.32 241.819 91.2 239.419 93.6C237.019 96 234.091 97.2 230.635 97.2Z" fill="#BB4430"/>
<path d="M94.5359 195.632C85.2239 195.632 76.7759 193.76 69.1919 190.016C61.7039 186.176 55.7519 180.512 51.3359 173.024C46.9199 165.536 44.7119 156.368 44.7119 145.52C44.7119 137.264 46.0559 130.016 48.7439 123.776C51.4319 117.536 55.0799 112.304 59.6879 108.08C64.3919 103.856 69.7679 100.688 75.8159 98.576C81.9599 96.464 88.4399 95.408 95.2559 95.408C100.728 95.408 105.768 96.032 110.376 97.28C114.984 98.528 119.304 100.256 123.336 102.464L123.912 120.176H122.472L115.272 108.656C114.312 106.832 113.256 105.2 112.104 103.76C110.952 102.224 109.512 101.072 107.784 100.304C106.344 99.632 104.904 99.152 103.464 98.864C102.12 98.48 100.392 98.288 98.2799 98.288C92.7119 98.288 87.6239 99.776 83.0159 102.752C78.5039 105.728 74.8559 110.672 72.0719 117.584C69.3839 124.4 68.0399 133.76 68.0399 145.664C68.0399 157.472 69.3359 166.832 71.9279 173.744C74.5199 180.56 78.0239 185.456 82.4399 188.432C86.9519 191.312 91.9919 192.752 97.5599 192.752C100.632 192.752 103.08 192.56 104.904 192.176C106.728 191.696 108.552 191.024 110.376 190.16C112.2 189.392 113.592 188.288 114.552 186.848C115.512 185.312 116.376 183.68 117.144 181.952L123.48 167.84H124.92L124.488 188.432C120.456 190.544 115.944 192.272 110.952 193.616C105.96 194.96 100.488 195.632 94.5359 195.632Z" fill="#231F20"/>
<path d="M131.91 193.04V191.6L133.638 191.024C137.094 189.872 138.822 187.472 138.822 183.824V106.928C138.822 104.912 138.486 103.424 137.814 102.464C137.142 101.504 135.846 100.784 133.926 100.304L131.766 99.728V98.288L157.11 92.096L159.414 93.392L158.838 113.696V131.696C162.198 128.912 165.798 126.56 169.638 124.64C173.574 122.624 177.894 121.616 182.598 121.616C188.838 121.616 193.782 123.392 197.43 126.944C201.174 130.496 203.046 135.968 203.046 143.36V183.968C203.046 185.888 203.43 187.424 204.198 188.576C204.966 189.728 206.31 190.592 208.23 191.168L209.382 191.6V193.04H175.686V191.6L177.414 191.168C180.87 190.016 182.598 187.568 182.598 183.824V138.608C182.598 134.768 181.926 132.128 180.582 130.688C179.334 129.248 177.078 128.528 173.814 128.528C171.702 128.528 169.398 128.96 166.902 129.824C164.406 130.592 161.862 131.984 159.27 134V184.112C159.27 187.856 160.998 190.256 164.454 191.312L165.606 191.6V193.04H131.91Z" fill="#231F20"/>
<path d="M235.189 195.2C229.621 195.2 224.917 193.616 221.077 190.448C217.333 187.28 215.461 182.72 215.461 176.768C215.461 172.256 217.765 168.128 222.373 164.384C226.981 160.544 234.229 157.664 244.117 155.744C245.653 155.456 247.381 155.168 249.301 154.88C251.221 154.496 253.237 154.112 255.349 153.728V142.352C255.349 135.824 254.533 131.264 252.901 128.672C251.365 125.984 248.917 124.64 245.557 124.64C243.253 124.64 241.429 125.408 240.085 126.944C238.741 128.384 237.877 130.928 237.493 134.576L237.205 136.16C237.013 140.288 236.005 143.312 234.181 145.232C232.357 147.152 230.101 148.112 227.413 148.112C224.917 148.112 222.853 147.344 221.221 145.808C219.589 144.272 218.773 142.208 218.773 139.616C218.773 135.68 220.117 132.368 222.805 129.68C225.589 126.992 229.237 124.976 233.749 123.632C238.261 122.288 243.157 121.616 248.437 121.616C256.981 121.616 263.557 123.728 268.165 127.952C272.869 132.08 275.221 138.848 275.221 148.256V180.08C275.221 184.4 277.237 186.56 281.269 186.56H284.437L285.733 187.712C283.909 190.016 281.893 191.792 279.685 193.04C277.573 194.288 274.549 194.912 270.613 194.912C266.389 194.912 263.029 193.952 260.533 192.032C258.133 190.016 256.549 187.376 255.781 184.112C252.901 187.184 249.925 189.824 246.853 192.032C243.877 194.144 239.989 195.2 235.189 195.2ZM243.973 186.416C245.893 186.416 247.669 185.984 249.301 185.12C251.029 184.16 253.045 182.72 255.349 180.8V156.608C254.389 156.8 253.429 156.992 252.469 157.184C251.509 157.376 250.405 157.568 249.157 157.76C244.741 158.912 241.189 160.88 238.501 163.664C235.909 166.352 234.613 170 234.613 174.608C234.613 178.544 235.525 181.52 237.349 183.536C239.173 185.456 241.381 186.416 243.973 186.416Z" fill="#231F20"/>
<path d="M316.056 195.2C309.912 195.2 305.112 193.664 301.656 190.592C298.296 187.52 296.616 182.624 296.616 175.904V126.656H286.68V125.216L290.136 124.64C293.112 123.968 295.656 123.008 297.768 121.76C299.976 120.512 302.136 118.832 304.248 116.72L316.056 103.616H317.496L317.064 123.776H333.192V126.656H316.92V178.496C316.92 181.856 317.64 184.4 319.08 186.128C320.616 187.856 322.536 188.72 324.84 188.72C326.856 188.72 328.632 188.24 330.168 187.28C331.704 186.224 333.24 184.832 334.776 183.104L336.216 184.544C334.296 187.808 331.656 190.4 328.296 192.32C324.936 194.24 320.856 195.2 316.056 195.2Z" fill="#231F20"/>
</svg>
